<?xml version="1.0" standalone="no"?>
<!DOCTYPE svg PUBLIC "-//W3C//DTD SVG 20010904//EN"
 "http://www.w3.org/TR/2001/REC-SVG-20010904/DTD/svg10.dtd">
<svg version="1.0" xmlns="http://www.w3.org/2000/svg"
 width="1080.000000pt" height="1080.000000pt" viewBox="0 0 1080.000000 1080.000000"
 preserveAspectRatio="xMidYMid meet">
<metadata>
Created by potrace 1.14, written by Peter Selinger 2001-2017
</metadata>
<g transform="translate(0.000000,1080.000000) scale(0.100000,-0.100000)"
fill="#000000" stroke="none">
<path d="M8222 7781 c-7 -4 -31 -8 -54 -9 -22 -1 -47 -7 -54 -12 -8 -8 -14 -8
-19 0 -4 7 -11 8 -18 1 -7 -5 -28 -9 -47 -10 -19 0 -50 -2 -67 -4 -18 -2 -33
1 -33 6 0 4 -7 1 -16 -8 -10 -9 -20 -13 -23 -8 -9 12 -34 15 -26 3 3 -5 -2 -9
-12 -8 -46 4 -74 -2 -67 -14 5 -9 2 -9 -9 1 -10 8 -17 9 -17 3 0 -6 -9 -9 -20
-7 -11 2 -20 1 -20 -3 0 -4 -12 -8 -27 -9 -29 -2 -76 -10 -80 -13 -2 -2 -6 -3
-10 -4 -5 -1 -12 -4 -18 -7 -5 -4 -22 -6 -37 -5 -14 1 -24 -3 -21 -8 4 -5 -3
-7 -13 -4 -11 3 -26 -1 -33 -9 -7 -8 -22 -13 -32 -10 -10 3 -19 1 -21 -4 -2
-5 -14 -10 -27 -12 -14 -2 -27 -9 -29 -15 -2 -6 -10 -8 -18 -5 -8 3 -14 0 -14
-7 0 -9 -3 -10 -14 -1 -11 9 -15 8 -20 -5 -5 -14 -9 -14 -23 -3 -10 8 -14 9
-10 2 4 -7 -1 -14 -13 -18 -11 -3 -20 -11 -20 -17 0 -6 -3 -8 -7 -5 -3 4 -17
0 -30 -8 -13 -9 -28 -13 -33 -10 -5 3 -11 1 -15 -5 -4 -6 -11 -7 -17 -4 -6 4
-8 2 -4 -4 6 -10 -30 -28 -46 -24 -5 1 -8 -3 -8 -8 0 -6 -7 -10 -15 -10 -8 0
-15 -4 -15 -10 0 -5 -6 -9 -12 -7 -7 1 -12 -4 -10 -11 1 -8 -2 -11 -8 -7 -6 4
-17 1 -25 -5 -8 -7 -15 -9 -15 -4 0 5 -5 1 -11 -8 -5 -10 -16 -18 -23 -18 -8
0 -17 -7 -20 -16 -4 -10 -14 -14 -26 -11 -11 3 -17 1 -14 -4 3 -5 -3 -12 -13
-16 -10 -4 -23 -13 -29 -21 -7 -9 -16 -12 -24 -7 -8 5 -11 4 -7 -2 4 -6 -1
-17 -10 -24 -14 -12 -16 -12 -8 0 6 10 4 12 -4 7 -7 -5 -10 -14 -7 -22 3 -8 0
-11 -9 -8 -7 3 -19 -4 -25 -16 -6 -11 -15 -18 -19 -15 -5 3 -12 -2 -15 -11 -3
-8 -11 -12 -16 -9 -6 4 -9 1 -8 -7 2 -7 -3 -12 -9 -11 -7 2 -12 -2 -10 -8 1
-6 -7 -16 -17 -22 -28 -18 -61 -51 -58 -59 1 -5 -1 -8 -6 -8 -4 0 -22 -13 -40
-30 -18 -16 -31 -30 -27 -30 3 0 0 -6 -7 -14 -7 -8 -16 -12 -20 -9 -5 2 -8 -3
-8 -12 0 -8 -7 -18 -15 -21 -8 -4 -13 -9 -11 -13 5 -8 -27 -38 -33 -31 -2 3
-5 -3 -7 -14 -1 -10 -11 -26 -21 -37 -31 -32 -44 -49 -36 -49 4 0 3 -4 -3 -8
-21 -14 -75 -102 -69 -112 4 -6 1 -9 -6 -8 -7 2 -13 -3 -14 -10 0 -7 -6 -17
-14 -21 -7 -5 -11 -13 -7 -19 3 -5 -1 -13 -9 -16 -8 -3 -14 -9 -14 -13 4 -15
-13 -43 -22 -37 -5 3 -6 -2 -3 -10 4 -10 1 -16 -7 -16 -7 0 -9 -3 -6 -7 4 -3
-1 -15 -10 -26 -13 -15 -14 -18 -3 -12 11 6 11 4 -2 -11 -9 -10 -18 -23 -19
-29 -8 -36 -12 -45 -20 -45 -5 0 -9 -9 -9 -19 0 -11 -4 -23 -10 -26 -5 -3 -10
-15 -10 -26 0 -11 -4 -18 -9 -15 -5 4 -7 -3 -4 -14 3 -11 0 -20 -6 -20 -6 0
-10 -3 -10 -7 4 -27 -2 -53 -12 -47 -8 4 -9 -1 -4 -16 5 -14 3 -20 -3 -16 -6
4 -8 -2 -5 -14 3 -11 1 -20 -5 -20 -6 0 -9 -9 -7 -20 2 -11 1 -20 -3 -20 -4 0
-12 -11 -19 -25 -6 -14 -7 -23 -2 -19 5 3 9 1 9 -5 0 -5 -4 -12 -8 -15 -5 -3
-8 -19 -7 -36 1 -16 -3 -30 -8 -30 -6 0 -7 -3 -4 -7 4 -3 2 -12 -4 -20 -9 -10
-8 -13 1 -13 9 0 10 -3 1 -14 -11 -13 -22 -63 -23 -103 0 -13 -4 -23 -8 -23
-4 0 -6 -11 -5 -25 2 -14 0 -25 -5 -25 -4 0 -6 -16 -3 -35 2 -24 -1 -35 -9
-35 -10 0 -10 -2 1 -9 9 -6 10 -11 3 -15 -6 -4 -9 -13 -5 -21 3 -9 -1 -23 -8
-32 -10 -12 -10 -14 -2 -9 10 5 12 -1 10 -23 -2 -17 -7 -34 -10 -37 -3 -4 -2
-15 3 -25 7 -12 7 -20 0 -24 -7 -4 -7 -12 -2 -18 10 -14 10 -27 -2 -46 -5 -8
-4 -16 4 -21 9 -6 9 -13 1 -28 -7 -14 -8 -23 -1 -27 5 -3 10 -11 10 -16 0 -6
-5 -7 -12 -3 -7 5 -8 3 -3 -6 13 -21 15 -81 3 -74 -7 5 -8 2 -2 -7 4 -8 9 -40
10 -72 2 -32 6 -66 10 -75 4 -10 8 -33 9 -52 2 -19 4 -37 5 -40 1 -3 1 -13 0
-24 -1 -10 2 -16 7 -13 4 3 8 -15 8 -39 0 -24 3 -44 6 -44 4 0 5 -9 2 -20 -3
-12 0 -20 7 -20 7 0 9 -8 5 -21 -5 -15 -4 -19 4 -14 8 4 10 -2 7 -19 -3 -14 0
-26 5 -26 6 0 7 -9 4 -20 -4 -12 -2 -20 5 -20 6 0 8 -4 5 -10 -3 -5 1 -23 10
-40 9 -17 14 -34 11 -39 -3 -4 1 -16 8 -27 8 -10 12 -24 9 -31 -3 -7 0 -13 7
-13 7 0 10 -8 7 -20 -3 -11 -1 -20 5 -20 5 0 7 -4 4 -9 -4 -5 -2 -11 4 -13 5
-1 11 -15 12 -30 1 -16 6 -28 10 -28 4 0 8 -9 8 -20 0 -11 5 -20 11 -20 5 0 8
-4 4 -9 -3 -5 1 -16 9 -24 8 -8 13 -17 10 -19 -2 -3 7 -22 22 -43 14 -21 26
-46 27 -57 1 -10 5 -18 9 -18 4 0 8 -7 8 -15 0 -8 5 -15 12 -15 6 0 9 -3 5 -6
-3 -4 1 -13 9 -21 8 -8 12 -18 9 -23 -3 -4 2 -10 10 -14 8 -3 15 -12 15 -21 0
-8 4 -15 8 -15 5 0 9 -6 9 -13 0 -15 39 -74 67 -99 14 -13 15 -18 5 -18 -8 -1
-3 -7 11 -15 14 -8 21 -14 16 -15 -6 0 -1 -7 10 -15 10 -8 15 -15 10 -15 -5 0
3 -9 18 -21 14 -11 26 -27 26 -35 0 -8 7 -14 16 -14 8 0 13 -4 10 -9 -3 -5 1
-12 10 -15 9 -3 12 -11 8 -18 -4 -7 -4 -10 1 -6 10 10 37 -11 29 -23 -3 -5 2
-9 10 -9 8 0 18 -9 21 -20 3 -11 12 -20 19 -20 7 0 19 -11 26 -25 7 -13 18
-23 24 -22 6 1 10 -4 9 -10 -2 -8 7 -13 20 -13 18 0 19 -2 7 -10 -12 -8 -11
-10 8 -10 13 0 22 -6 22 -15 0 -8 4 -15 10 -15 5 0 19 -10 31 -22 12 -13 18
-17 14 -9 -5 9 -4 12 3 7 7 -4 12 -14 12 -22 0 -8 3 -13 8 -13 19 3 33 -2 27
-11 -3 -6 1 -10 10 -10 9 0 13 -5 10 -10 -3 -5 1 -10 9 -10 9 0 16 -5 16 -11
0 -5 5 -7 10 -4 6 3 13 -1 16 -9 3 -9 10 -13 15 -10 5 3 12 -2 15 -10 3 -9 12
-16 18 -16 7 0 21 -8 32 -17 10 -10 33 -25 49 -33 17 -8 32 -17 35 -20 13 -13
70 -40 70 -33 0 4 4 4 8 -2 13 -18 71 -55 87 -55 8 0 15 -4 15 -10 0 -5 11
-10 24 -10 14 0 28 -4 31 -10 3 -5 15 -10 26 -10 10 0 19 -4 19 -10 0 -5 9
-10 20 -10 11 0 20 -4 20 -10 0 -5 9 -10 20 -10 11 0 20 -5 20 -11 0 -8 5 -8
15 1 8 7 15 8 15 3 0 -5 12 -15 26 -21 15 -8 23 -8 19 -2 -4 6 10 1 30 -10 20
-11 40 -18 46 -15 5 4 9 1 9 -5 0 -6 5 -8 10 -5 6 4 18 1 27 -7 14 -11 16 -11
9 1 -5 8 3 6 20 -5 21 -14 26 -15 19 -4 -8 13 -7 13 8 1 9 -7 17 -10 17 -5 0
5 4 3 8 -4 5 -7 30 -14 55 -15 26 -1 47 -5 47 -9 0 -5 3 -7 8 -7 23 4 42 -2
36 -12 -4 -8 0 -8 15 0 11 7 21 8 21 4 0 -8 29 -14 70 -15 8 -1 20 -5 27 -10
7 -6 14 -5 18 2 5 8 10 8 20 0 10 -8 15 -8 20 0 5 8 11 8 20 0 8 -7 19 -9 24
-6 5 4 12 2 16 -3 3 -6 12 -8 20 -5 8 3 20 2 27 -2 18 -11 48 -12 54 -2 3 5
11 5 17 -1 14 -11 337 -10 330 2 -3 4 1 14 7 22 10 11 10 15 1 15 -7 0 -9 5
-5 12 10 16 12 58 2 58 -4 0 -4 11 1 23 5 13 5 30 1 37 -5 8 -4 22 2 33 7 13
7 22 -1 30 -7 7 -7 16 1 30 7 15 7 22 -3 28 -8 5 -9 9 -4 9 6 0 10 32 11 75 0
41 -3 72 -7 70 -8 -6 -7 14 2 30 9 16 4 259 -5 274 -6 9 -5 12 1 8 5 -4 10 7
10 23 0 17 -5 30 -11 30 -6 0 -4 5 4 10 11 7 11 10 2 10 -7 0 -10 5 -7 10 10
16 -5 51 -18 43 -7 -4 -22 -7 -34 -8 -12 0 -25 -3 -29 -7 -4 -4 -12 -4 -18 -1
-16 11 -56 11 -62 1 -3 -4 -10 -5 -16 -2 -5 3 -55 7 -111 8 -56 1 -107 5 -114
9 -6 4 -14 3 -17 -2 -4 -6 -17 -4 -33 4 -15 8 -30 12 -35 9 -4 -3 -8 1 -8 8 0
9 -3 9 -10 -2 -8 -12 -10 -12 -10 -1 0 10 -3 11 -14 2 -10 -8 -16 -9 -21 -1
-3 5 -15 10 -26 10 -10 0 -19 5 -19 12 0 9 -3 9 -12 0 -10 -10 -16 -8 -31 10
-10 13 -16 18 -13 11 4 -7 -1 -11 -13 -10 -11 0 -18 4 -16 7 2 3 -17 12 -43
19 -26 8 -52 18 -59 23 -7 5 -17 7 -23 3 -5 -3 -10 -2 -10 4 0 5 -9 13 -20 16
-12 4 -17 11 -13 18 4 7 -1 6 -10 -2 -11 -9 -17 -10 -17 -2 0 6 -7 11 -16 11
-8 0 -12 4 -9 10 3 5 0 7 -8 5 -7 -3 -24 3 -36 14 -13 12 -28 18 -32 15 -5 -3
-9 2 -9 11 0 9 -4 13 -10 10 -5 -3 -10 -1 -10 5 0 6 -4 8 -10 5 -5 -3 -10 -1
-10 6 0 7 -3 10 -6 6 -3 -3 -19 7 -34 23 -19 19 -30 25 -34 17 -2 -7 -5 -5 -5
5 -1 9 -6 20 -13 24 -7 5 -9 2 -4 -7 5 -8 -5 1 -22 19 -16 17 -33 32 -37 32
-4 0 -30 22 -57 50 -27 28 -54 50 -59 50 -6 0 -7 4 -4 10 3 6 1 10 -6 10 -7 0
-9 3 -6 6 3 4 -8 20 -24 35 -17 16 -28 29 -25 29 4 0 -4 11 -18 23 -14 13 -22
27 -18 31 4 4 -1 12 -11 17 -9 6 -17 17 -17 25 0 8 -4 12 -10 9 -6 -4 -10 5
-10 20 0 14 -4 23 -10 20 -5 -3 -12 6 -16 20 -3 14 -11 25 -17 25 -6 0 -8 3
-4 6 3 4 -1 13 -9 21 -8 9 -13 22 -10 29 3 7 -3 18 -12 23 -9 6 -13 11 -8 11
5 0 1 9 -8 19 -10 11 -15 25 -11 30 3 6 1 11 -4 11 -6 0 -11 11 -11 24 0 13
-7 29 -15 36 -18 15 -20 34 -2 25 6 -4 5 -1 -4 7 -9 7 -14 18 -12 25 2 6 0 14
-6 17 -6 4 -8 13 -4 21 3 8 0 15 -7 15 -6 0 -9 4 -6 8 2 4 1 14 -4 22 -5 9 -4
20 2 28 6 7 7 12 2 11 -20 -4 -24 2 -14 20 5 11 6 21 1 23 -5 2 -10 17 -12 33
-2 17 -7 36 -12 43 -6 8 -5 12 3 12 9 0 9 4 3 13 -15 17 -14 77 0 77 9 0 9 2
1 8 -14 9 -14 43 0 61 9 12 8 13 -3 6 -11 -6 -13 -4 -8 8 3 9 2 19 -3 22 -5 3
-7 12 -4 20 4 8 11 12 18 8 8 -5 8 -3 0 8 -14 17 -16 121 -2 113 5 -3 4 4 -4
15 -11 18 -11 23 2 31 12 8 12 10 1 10 -11 0 -11 3 0 17 12 15 12 16 -1 8 -12
-7 -13 -6 -4 6 6 8 12 21 13 29 2 34 7 56 15 68 4 6 3 12 -2 12 -6 0 -8 9 -5
20 3 11 10 17 17 13 6 -4 5 0 -2 9 -9 12 -10 18 -2 23 6 4 9 12 7 18 -2 6 4
27 14 46 11 23 13 38 7 42 -5 4 -3 9 6 12 9 4 13 13 10 22 -4 8 -1 15 7 15 7
0 10 3 6 6 -3 4 0 21 8 39 7 19 11 36 7 39 -3 3 0 6 7 6 8 0 11 7 7 15 -3 10
1 15 12 15 13 0 14 2 4 9 -11 7 -11 9 2 14 9 4 16 13 16 22 0 8 5 15 12 15 6
0 9 3 5 6 -8 8 32 84 45 84 5 0 7 4 4 9 -3 5 1 14 9 21 8 7 15 17 15 22 0 5 5
14 10 21 42 49 49 61 43 71 -3 6 -3 8 2 4 5 -5 17 6 27 23 11 17 23 27 30 23
7 -5 8 -3 4 5 -5 8 0 14 14 18 16 4 18 8 8 14 -10 7 -9 9 5 9 10 0 16 3 14 8
-3 4 1 13 9 20 8 7 14 10 14 6 0 -4 9 3 20 16 11 13 20 28 20 33 0 6 3 7 7 4
3 -4 17 5 30 19 12 14 23 22 23 19 0 -3 13 8 30 25 16 16 34 30 40 30 6 0 8 5
5 10 -4 6 -3 10 2 9 15 -4 63 20 63 31 0 6 4 9 9 6 4 -3 19 3 31 14 13 11 29
20 37 20 9 0 11 5 7 13 -4 6 -4 9 0 5 9 -8 66 11 66 22 0 4 9 6 20 3 11 -3 20
-1 20 5 0 5 16 13 35 16 19 4 35 10 35 14 0 4 8 8 18 8 29 1 46 8 60 24 8 8
11 9 7 2 -7 -13 21 -12 44 2 11 7 12 6 6 -5 -7 -11 -6 -12 7 -2 8 7 18 10 21
6 4 -3 7 -1 7 6 0 7 7 10 18 7 9 -3 24 -1 31 4 9 5 22 5 34 -2 14 -7 17 -7 13
1 -5 7 19 10 77 9 46 0 89 2 95 6 5 3 13 0 15 -6 4 -10 6 -9 6 1 1 11 4 11 16
1 11 -9 15 -9 15 -1 0 7 5 9 12 5 7 -5 41 -7 75 -6 45 2 63 -2 63 -10 0 -7 5
-5 11 5 6 9 15 14 21 11 6 -4 21 -8 32 -10 64 -10 93 -17 105 -27 12 -10 13
-9 6 3 -7 12 -6 13 6 4 8 -5 32 -12 54 -13 22 -2 45 -7 51 -12 6 -5 14 -6 17
-2 4 3 7 1 7 -6 0 -7 5 -9 10 -6 6 4 16 2 23 -3 7 -5 20 -8 29 -7 10 2 17 0
17 -3 -3 -19 3 -22 22 -11 12 6 19 7 16 2 -3 -4 6 -13 19 -20 13 -6 21 -7 18
-1 -8 12 38 -13 48 -27 4 -5 8 -6 8 -1 0 5 7 3 15 -4 8 -7 15 -9 15 -4 0 5 4
3 9 -5 5 -8 17 -16 26 -17 9 -1 26 -11 38 -21 11 -10 17 -12 13 -5 -7 11 -4
11 13 0 12 -7 21 -16 21 -21 0 -4 5 -5 10 -2 6 3 10 1 10 -5 0 -6 4 -9 8 -6 5
3 14 -4 22 -14 8 -10 17 -17 21 -15 3 3 18 -6 32 -19 13 -13 32 -26 41 -29 9
-4 16 -11 16 -18 0 -6 7 -8 17 -5 10 4 14 4 11 0 -9 -8 46 -64 64 -64 10 0 9
-3 -2 -10 -11 -7 -12 -10 -2 -10 17 0 133 -116 124 -124 -3 -3 1 -6 8 -6 7 0
11 -3 8 -6 -4 -3 7 -18 23 -33 16 -15 26 -31 22 -34 -3 -4 -1 -7 6 -7 7 0 10
-4 7 -9 -4 -5 -3 -11 1 -13 5 -1 19 -18 32 -37 13 -19 17 -31 10 -27 -8 4 -5
-1 6 -11 11 -10 22 -27 23 -38 2 -11 7 -22 12 -25 4 -3 10 -15 14 -28 4 -12
12 -20 17 -17 5 3 6 -1 2 -10 -3 -10 -1 -20 5 -24 6 -4 13 -16 15 -27 1 -12
10 -32 18 -45 8 -13 14 -34 13 -46 -1 -13 3 -23 8 -23 5 0 7 -4 3 -9 -3 -5 0
-13 6 -16 5 -4 8 -13 5 -21 -3 -8 -1 -14 5 -14 6 0 8 -4 4 -9 -3 -5 -1 -12 4
-16 9 -5 10 -12 11 -67 1 -12 6 -26 13 -30 9 -6 9 -8 -1 -8 -8 0 -10 -5 -6
-12 8 -13 16 -52 15 -81 0 -11 5 -15 12 -10 7 4 6 0 -2 -10 -10 -13 -10 -17
-1 -17 10 0 10 -3 1 -14 -9 -11 -9 -16 0 -21 8 -6 7 -10 -2 -16 -12 -7 -12 -9
0 -9 11 0 11 -3 1 -15 -7 -8 -8 -15 -3 -15 5 0 10 -7 10 -15 0 -8 -5 -15 -10
-15 -5 0 -4 -7 3 -15 10 -12 10 -18 0 -30 -10 -12 -10 -15 0 -15 10 0 10 -3 0
-15 -10 -12 -10 -15 0 -15 10 0 10 -3 0 -15 -7 -8 -8 -15 -3 -15 5 0 9 -9 9
-20 0 -11 -4 -20 -8 -20 -4 0 -5 -13 -3 -30 2 -18 -1 -30 -8 -30 -7 0 -6 -4 3
-10 9 -6 10 -10 3 -10 -7 0 -11 -12 -9 -27 1 -16 -5 -39 -13 -53 -9 -13 -11
-21 -4 -17 8 5 11 1 10 -13 -1 -11 -6 -20 -12 -20 -6 0 -7 -3 0 -8 15 -11 17
-32 3 -32 -10 0 -10 -2 -2 -8 8 -5 10 -28 5 -74 -5 -44 -3 -69 3 -72 7 -3 7
-5 -1 -5 -6 -1 -9 -10 -5 -23 4 -16 2 -19 -9 -13 -11 7 -12 6 -3 -6 15 -18 15
-69 0 -69 -6 0 -3 -5 7 -11 12 -7 15 -15 8 -26 -4 -9 -6 -25 -3 -36 4 -15 2
-18 -9 -12 -12 8 -12 6 -1 -8 8 -9 11 -21 7 -27 -3 -5 -1 -10 6 -10 7 0 4 -7
-7 -16 -10 -8 -14 -13 -8 -10 15 7 15 -126 0 -136 -8 -6 -8 -8 1 -8 6 0 11
-15 11 -35 0 -20 -5 -35 -11 -35 -9 0 -9 -2 -1 -8 15 -10 16 -72 1 -72 -9 0
-9 -2 -1 -8 7 -4 12 -20 12 -37 0 -16 -5 -33 -12 -37 -8 -6 -7 -8 2 -8 6 0 12
-7 12 -16 0 -9 -5 -12 -12 -8 -10 6 -10 5 -2 -7 15 -18 15 -69 0 -70 -6 0 -2
-4 9 -9 11 -5 15 -9 9 -9 -7 -1 -10 -15 -7 -37 3 -27 1 -34 -9 -28 -10 6 -10
4 0 -9 8 -9 11 -21 7 -27 -3 -5 -1 -10 6 -10 7 0 4 -7 -7 -16 -10 -8 -14 -13
-8 -10 15 7 15 -126 0 -136 -8 -6 -8 -8 1 -8 6 0 11 -15 11 -35 0 -20 -5 -35
-11 -35 -8 0 -9 -3 -1 -8 15 -10 16 -174 0 -166 -6 3 -2 -2 8 -10 13 -10 15
-16 7 -16 -10 0 -11 -3 -2 -13 6 -8 9 -16 6 -19 -3 -2 2 -5 10 -5 8 0 15 4 15
9 0 4 7 8 15 8 8 0 15 8 15 18 0 14 2 15 10 2 7 -11 10 -12 10 -2 0 16 24 42
39 42 6 0 11 5 11 11 0 5 4 8 9 4 5 -3 12 4 16 15 4 11 11 18 16 15 5 -4 9 -1
9 4 0 6 6 10 13 8 6 -1 11 3 10 9 -1 6 8 17 19 25 12 8 30 24 41 36 11 12 24
20 28 17 5 -3 6 3 2 12 -4 11 -3 15 5 10 6 -3 13 3 17 14 4 11 10 18 15 15 5
-3 11 4 15 15 3 11 10 20 15 20 5 0 16 12 24 28 8 15 17 26 20 25 3 -2 6 -1 6
2 0 2 10 15 23 28 38 40 77 87 72 87 -6 0 20 33 53 68 18 19 20 23 6 18 -12
-4 -9 2 9 20 15 14 24 30 21 35 -3 5 -1 9 5 9 6 0 20 20 31 45 11 25 25 45 31
45 6 0 7 5 3 11 -3 6 -3 14 2 18 12 8 34 48 34 62 0 6 9 23 20 39 11 15 17 30
13 34 -3 3 -1 6 6 6 7 0 10 4 7 9 -3 5 3 19 13 32 10 13 19 32 19 42 4 41 6
47 14 47 5 0 6 5 3 10 -3 6 -2 10 4 10 6 0 8 6 5 14 -3 8 -1 17 5 21 6 3 11
15 11 25 0 30 22 70 34 63 6 -4 5 0 -2 9 -9 11 -10 18 -2 23 6 3 8 11 5 16 -4
5 -1 9 5 9 6 0 8 4 5 10 -3 5 -1 19 5 31 7 11 13 37 13 57 1 21 6 43 10 50 5
7 3 12 -5 12 -11 0 -11 2 0 9 7 4 14 18 15 29 1 12 5 22 9 22 4 0 4 7 1 17 -5
12 -3 14 8 8 11 -6 12 -5 2 5 -8 9 -9 19 -2 32 7 13 6 18 -3 18 -9 0 -9 3 -2
8 17 11 24 40 11 46 -9 3 -8 5 1 5 10 1 10 6 1 22 -6 12 -7 19 -1 15 5 -3 12
3 15 14 3 11 1 18 -4 14 -14 -8 -11 10 5 31 9 13 11 25 5 37 -6 10 -5 18 2 20
7 2 12 41 12 100 1 53 6 94 10 91 5 -3 4 5 -3 17 -10 18 -9 24 1 31 9 6 10 12
4 17 -15 11 -19 46 -4 36 8 -5 10 -3 4 6 -4 7 -9 44 -11 83 -1 38 -6 73 -11
76 -5 3 -8 18 -8 34 1 15 -3 27 -7 27 -4 0 -5 7 -2 15 4 8 1 21 -4 28 -7 8 -7
18 -2 27 5 9 5 19 -2 27 -8 10 -7 13 3 13 11 0 11 2 2 8 -7 5 -14 27 -15 50
-1 23 -4 42 -8 42 -4 0 -7 6 -8 13 -3 48 -10 89 -16 94 -3 3 -6 19 -6 34 0 16
-7 29 -17 33 -14 6 -15 9 -4 15 9 6 10 11 2 15 -6 4 -9 12 -6 17 4 5 2 9 -2 9
-5 0 -14 21 -22 48 -7 26 -21 64 -31 85 -11 21 -15 35 -9 31 6 -3 3 5 -6 19
-9 14 -18 33 -19 42 -1 9 -8 20 -15 25 -8 4 -10 13 -7 19 4 6 2 11 -4 11 -7 0
-10 6 -7 14 3 8 -1 17 -9 20 -9 3 -12 10 -9 16 3 5 2 10 -3 10 -5 0 -15 14
-22 30 -7 17 -17 30 -22 30 -5 0 -6 5 -3 10 3 6 1 10 -5 10 -6 0 -10 8 -8 18
2 10 -2 16 -10 14 -8 -1 -11 2 -7 8 3 6 0 17 -7 25 -27 30 -38 45 -38 50 1 21
-1 25 -10 20 -5 -3 -10 1 -10 9 0 8 -9 24 -21 35 -12 11 -18 24 -14 30 3 6 0
11 -8 11 -8 0 -17 10 -20 22 -4 12 -9 19 -13 15 -4 -4 -18 11 -31 33 -14 22
-29 38 -34 35 -5 -4 -9 3 -9 15 0 12 -4 18 -10 15 -5 -3 -10 1 -10 9 0 8 -9
18 -20 21 -11 4 -18 11 -15 16 4 5 -1 12 -9 15 -9 3 -13 10 -10 15 3 5 0 9 -6
9 -7 0 -24 13 -40 30 -15 16 -30 26 -34 23 -3 -3 -6 -1 -6 6 0 16 -26 42 -34
34 -3 -4 -6 1 -6 10 0 16 -12 22 -33 18 -5 -1 -6 2 -3 7 2 4 -7 17 -22 28 -14
10 -33 27 -41 37 -9 9 -21 17 -28 17 -6 0 -15 5 -19 12 -5 7 -2 8 7 3 8 -5 11
-4 6 1 -5 5 -12 9 -15 9 -17 1 -72 37 -72 46 0 6 -4 7 -10 4 -5 -3 -10 -2 -10
3 0 4 -16 14 -35 22 -19 7 -31 18 -28 23 4 6 0 8 -10 4 -10 -3 -17 -2 -17 3 0
6 -20 20 -45 32 -25 12 -45 25 -45 30 0 4 -6 5 -13 2 -7 -2 -23 5 -35 16 -12
11 -22 16 -22 10 0 -7 -7 -4 -16 4 -8 9 -26 19 -40 22 -13 3 -24 10 -24 15 0
5 -12 9 -26 9 -14 0 -23 4 -20 9 3 5 -8 12 -24 15 -17 3 -43 9 -60 12 -16 3
-28 9 -26 13 3 4 -22 13 -55 20 -32 8 -59 17 -59 21 0 4 -16 7 -36 6 -20 -1
-38 2 -41 6 -2 5 -9 6 -14 3 -5 -4 -9 -1 -9 4 0 6 -13 11 -30 11 -16 0 -30 4
-30 8 0 4 -11 9 -25 10 -14 1 -36 2 -50 3 -14 1 -25 5 -25 9 0 10 -20 8 -37
-3 -9 -6 -11 -3 -7 8 5 11 2 14 -10 9 -9 -3 -29 -1 -46 5 -22 7 -29 7 -24 -1
5 -7 2 -8 -6 -3 -7 5 -38 10 -69 12 -31 2 -59 10 -63 16 -6 9 -8 9 -8 0 0 -7
-15 -11 -40 -10 -22 1 -40 5 -40 9 0 4 -12 3 -26 -2 -16 -7 -23 -7 -19 0 4 6
-6 10 -22 10 -16 0 -35 6 -42 13 -11 10 -13 9 -7 -1 8 -13 -19 -13 -40 1 -6 3
-14 4 -18 0 -11 -11 -56 -12 -56 -1 0 6 -7 5 -17 -3 -13 -11 -17 -11 -20 -2
-4 10 -10 10 -25 2 -15 -8 -19 -8 -14 0 8 13 6 14 -12 2z"/>
<path d="M2376 7722 c-3 -5 -22 -8 -41 -7 -31 1 -39 -3 -51 -27 -8 -16 -10
-28 -5 -28 7 0 7 -9 1 -25 -6 -16 -6 -25 0 -25 6 0 10 -5 10 -11 0 -5 -5 -7
-11 -3 -8 4 -8 1 -1 -13 7 -12 7 -24 0 -37 -8 -14 -8 -17 2 -11 9 6 9 3 1 -14
-7 -11 -8 -21 -2 -21 12 0 9 -33 -4 -42 -6 -5 -5 -8 4 -8 11 0 11 -3 1 -15 -8
-10 -9 -15 -1 -15 7 0 8 -8 1 -25 -6 -16 -6 -25 0 -25 6 0 10 -5 10 -11 0 -5
-5 -7 -11 -3 -8 5 -8 1 0 -13 6 -11 8 -23 5 -26 -9 -8 -11 -78 -3 -83 4 -2 3
-20 -1 -39 -4 -19 -4 -37 0 -40 4 -3 4 -21 0 -40 -4 -19 -4 -37 0 -40 4 -3 4
-20 0 -39 -4 -19 -5 -38 -2 -41 10 -10 8 -55 -3 -55 -5 0 -3 -5 5 -10 13 -9
13 -10 0 -10 -9 0 -11 -3 -5 -8 12 -9 13 -32 1 -51 -6 -10 -5 -12 2 -7 8 4 12
0 12 -11 0 -14 7 -19 25 -19 14 0 25 3 25 6 0 3 66 4 148 3 197 -4 232 -7 232
-16 0 -5 5 -5 10 -2 6 4 17 1 25 -5 10 -9 15 -9 15 -1 0 7 8 8 24 1 13 -5 27
-6 30 -3 3 4 6 1 6 -7 0 -10 4 -10 17 1 11 10 14 10 9 2 -5 -9 2 -13 23 -13
17 0 31 -4 31 -10 0 -5 7 -7 15 -4 8 4 15 1 15 -6 0 -6 4 -9 9 -6 11 7 61 -16
61 -29 0 -5 5 -3 10 5 6 10 10 11 10 3 0 -7 9 -13 19 -13 11 0 23 -5 26 -11 4
-6 13 -8 21 -5 8 3 14 -1 14 -9 0 -8 6 -12 14 -9 8 3 17 0 21 -5 3 -6 11 -9
16 -6 5 4 9 2 9 -3 0 -4 16 -14 35 -22 19 -8 35 -17 35 -22 0 -4 7 -8 15 -8 8
0 15 -5 15 -11 0 -5 4 -8 9 -5 5 3 11 -1 15 -9 3 -8 15 -15 26 -15 12 0 19 -4
15 -9 -3 -5 4 -13 16 -16 11 -4 37 -23 57 -43 20 -21 32 -30 26 -22 -5 9 -1 7
9 -3 9 -11 17 -16 17 -13 0 3 8 -2 18 -11 10 -10 17 -24 14 -31 -2 -7 -1 -12
4 -11 22 4 34 -2 34 -18 0 -9 3 -14 6 -11 5 5 54 -37 54 -47 0 -2 13 -18 30
-36 16 -18 27 -36 24 -41 -3 -5 0 -7 7 -6 7 2 13 -2 14 -8 0 -6 8 -18 18 -28
9 -10 17 -22 17 -27 0 -6 4 -8 9 -4 6 3 8 -4 6 -15 -2 -11 0 -18 5 -15 5 3 14
-11 21 -30 7 -19 16 -35 20 -35 4 0 12 -14 18 -31 7 -21 15 -28 23 -23 8 5 7
1 -2 -11 -8 -10 -10 -16 -4 -12 9 5 34 -45 33 -67 0 -5 5 -12 11 -16 7 -4 13
-19 13 -33 1 -14 5 -23 10 -20 4 2 8 -5 9 -16 0 -12 1 -27 2 -33 1 -7 5 -16
10 -20 5 -3 10 -14 11 -25 2 -20 12 -50 25 -74 5 -10 4 -21 -3 -28 -8 -8 -8
-11 2 -11 10 0 11 -3 2 -13 -6 -8 -7 -17 -1 -23 5 -5 10 -20 12 -34 2 -14 6
-29 9 -35 3 -5 5 -25 5 -42 -1 -18 3 -33 8 -33 5 0 3 -7 -4 -15 -7 -8 -9 -15
-4 -15 5 0 7 -61 4 -136 -3 -76 -1 -138 4 -142 5 -3 1 -11 -9 -19 -11 -7 -13
-13 -7 -13 10 0 10 -5 2 -20 -8 -15 -8 -20 2 -20 10 0 10 -2 0 -9 -7 -4 -14
-22 -14 -39 -1 -17 -4 -29 -8 -27 -12 7 -6 -29 5 -37 6 -5 6 -8 -2 -8 -6 0
-10 -9 -8 -20 2 -11 0 -20 -5 -20 -5 0 -7 -9 -5 -20 2 -11 1 -20 -4 -20 -4 0
-13 -27 -20 -60 -8 -33 -18 -60 -23 -60 -6 0 -8 -9 -5 -20 3 -11 1 -20 -4 -20
-5 0 -9 -6 -9 -13 0 -7 -9 -29 -20 -50 -11 -20 -21 -40 -23 -44 -1 -5 -6 -7
-11 -5 -5 2 -3 -5 5 -14 8 -11 9 -15 2 -11 -8 5 -15 -1 -19 -18 -3 -14 -10
-25 -15 -25 -5 0 -9 -6 -9 -14 0 -7 -7 -19 -15 -26 -8 -7 -12 -16 -9 -21 3 -5
0 -9 -5 -9 -6 0 -18 -15 -26 -32 -31 -65 -46 -88 -66 -98 -11 -6 -17 -15 -15
-19 6 -10 -39 -51 -57 -51 -8 0 -7 -4 3 -10 11 -7 12 -10 2 -10 -17 0 -42 -25
-42 -42 0 -10 -3 -9 -10 2 -7 11 -10 11 -10 2 0 -17 -60 -72 -78 -72 -7 0 -10
-4 -7 -10 3 -5 2 -10 -3 -10 -4 0 -19 -10 -32 -22 -14 -13 -28 -22 -33 -20 -4
1 -10 -5 -13 -13 -4 -8 -12 -15 -20 -15 -8 0 -14 -5 -14 -12 0 -6 -3 -9 -6 -5
-6 6 -21 -4 -54 -37 -11 -11 -20 -15 -20 -8 0 7 -9 3 -20 -8 -12 -12 -25 -18
-30 -15 -6 4 -10 2 -10 -4 0 -6 -7 -8 -15 -5 -8 4 -15 1 -15 -6 0 -6 -4 -8
-10 -5 -5 3 -10 2 -10 -3 0 -5 -7 -9 -15 -10 -8 -1 -22 -3 -30 -4 -8 -1 -15
-5 -15 -10 0 -5 -4 -7 -9 -3 -5 3 -12 1 -16 -5 -4 -6 -11 -8 -16 -5 -5 4 -9 2
-9 -3 0 -5 -6 -9 -12 -10 -12 -1 -46 -7 -88 -15 -8 -1 -21 -7 -29 -11 -10 -7
-12 -5 -7 5 6 10 4 10 -6 -1 -7 -8 -29 -15 -48 -15 -19 1 -39 -4 -43 -10 -6
-7 -10 -6 -13 2 -4 8 -13 9 -28 3 -13 -4 -29 -4 -39 1 -9 6 -17 6 -17 2 0 -10
-133 -9 -149 1 -6 4 -11 3 -11 -1 0 -5 -29 -8 -65 -8 -36 0 -65 3 -65 6 0 8
-32 5 -47 -4 -6 -4 -14 -3 -18 3 -3 5 -16 10 -28 10 -42 0 -57 3 -57 14 0 6
-5 4 -10 -4 -8 -12 -10 -12 -10 -1 0 8 -7 11 -20 8 -11 -3 -20 0 -20 5 0 6 -8
4 -17 -3 -10 -8 -14 -9 -10 -2 5 8 -2 11 -22 11 -17 -1 -41 6 -55 16 -14 9
-37 17 -51 18 -14 1 -25 7 -25 12 0 5 -3 6 -7 3 -3 -4 -17 0 -31 9 -13 9 -21
11 -17 4 5 -9 1 -8 -16 1 -13 7 -26 14 -29 14 -3 0 -15 6 -26 13 -12 6 -24 8
-28 5 -3 -3 -6 -1 -6 5 0 10 -40 28 -49 23 -2 -2 -7 2 -10 7 -3 6 -13 12 -21
14 -14 3 -20 7 -54 35 -7 6 -17 9 -20 6 -3 -4 -6 1 -6 10 0 10 -5 14 -15 11
-8 -4 -15 -2 -15 3 0 10 -76 63 -90 63 -4 0 -11 7 -14 16 -4 9 -9 14 -13 10
-7 -7 -39 35 -35 47 2 7 -13 11 -30 8 -8 -1 -12 15 -9 32 1 5 -2 6 -7 3 -12
-7 -112 99 -112 120 0 10 -3 14 -7 11 -3 -4 -17 11 -30 33 -13 22 -28 40 -34
40 -5 0 -9 9 -9 20 0 11 -4 20 -9 20 -5 0 -16 19 -26 42 -9 23 -25 54 -36 70
-11 15 -17 28 -12 28 4 0 2 4 -6 9 -8 5 -16 15 -17 23 -1 7 -8 27 -15 43 -7
17 -13 35 -14 40 0 6 -6 20 -13 32 -7 12 -13 33 -14 47 -1 15 -6 26 -10 26 -4
0 -8 6 -8 14 0 8 -6 17 -12 19 -10 4 -10 6 0 6 9 1 10 6 4 19 -5 9 -8 27 -7
40 1 12 -4 27 -12 33 -10 9 -10 15 -2 25 6 8 7 14 2 14 -10 0 -13 22 -15 103
-1 20 -5 37 -11 37 -5 0 -4 6 2 14 8 10 9 16 1 21 -7 4 -7 12 0 26 8 13 7 19
0 19 -6 0 -8 5 -4 12 12 19 12 48 1 48 -5 0 -3 8 4 17 12 14 12 15 1 9 -11 -7
-12 -4 -3 12 14 27 14 35 -1 26 -7 -5 -8 -3 -2 7 4 8 9 36 10 64 3 53 9 89 18
104 4 5 0 12 -6 14 -10 4 -10 6 -1 6 7 1 10 8 7 16 -4 8 -1 15 6 15 10 0 10 3
0 15 -10 12 -10 15 1 15 11 0 11 2 -1 10 -11 7 -11 10 -2 10 9 0 10 5 2 19 -7
14 -6 21 3 24 9 4 9 6 0 6 -7 1 -13 6 -13 12 0 5 4 8 8 5 4 -2 7 23 5 57 -2
40 2 64 10 69 6 4 7 8 2 8 -6 0 -10 34 -9 88 0 48 -4 93 -10 101 -8 11 -8 13
1 8 8 -5 11 7 9 45 -1 29 3 59 8 67 9 12 8 13 -3 6 -11 -6 -13 -4 -8 7 3 9 0
21 -6 28 -9 10 -9 11 2 5 11 -6 13 -3 9 13 -4 12 -3 24 2 27 4 2 5 16 3 30 -3
15 -10 22 -17 18 -8 -5 -8 -3 0 8 6 8 10 24 8 37 -3 17 0 21 8 16 10 -6 10 -4
2 7 -12 17 -12 178 0 198 7 10 6 12 -4 6 -10 -6 -12 -4 -7 7 3 9 0 21 -6 28
-9 10 -9 11 1 6 9 -5 11 4 8 36 -2 24 2 49 8 57 8 11 8 13 -1 8 -13 -8 -12 30
2 52 5 9 4 12 -2 8 -6 -4 -10 9 -10 33 0 24 4 37 10 33 6 -4 7 -1 1 8 -4 8 -9
48 -9 89 0 41 -5 81 -9 89 -7 10 -5 12 4 6 10 -6 11 -2 6 19 -4 17 -2 26 6 26
6 0 3 7 -8 16 -10 8 -14 13 -8 10 8 -4 10 11 6 47 -5 59 -19 84 -28 49 -4 -12
-10 -19 -15 -16 -5 3 -9 0 -9 -7 0 -7 -3 -10 -6 -6 -4 3 -20 -7 -36 -24 -16
-16 -35 -26 -41 -22 -6 4 -8 0 -4 -10 3 -10 2 -17 -3 -17 -9 0 -42 -25 -75
-57 -7 -7 -16 -9 -20 -5 -4 4 -5 2 -4 -3 2 -6 -29 -43 -68 -82 -39 -40 -69
-73 -66 -73 2 0 -7 -11 -21 -24 -15 -13 -26 -27 -26 -32 0 -5 -19 -28 -43 -50
-23 -23 -43 -47 -45 -54 -2 -8 -11 -20 -20 -28 -12 -9 -13 -12 -2 -7 12 5 12
4 -1 -7 -8 -7 -18 -21 -22 -30 -3 -10 -11 -18 -17 -18 -5 0 -10 -9 -10 -20 0
-11 -7 -23 -15 -26 -8 -4 -12 -10 -9 -15 3 -5 0 -9 -6 -9 -6 0 -8 -4 -5 -10 3
-5 2 -10 -4 -10 -5 0 -15 -16 -22 -35 -7 -19 -17 -35 -22 -35 -4 0 -5 -4 -2
-10 3 -5 2 -10 -4 -10 -5 0 -15 -16 -22 -34 -7 -19 -16 -33 -20 -30 -4 2 -6
-7 -5 -21 2 -13 -1 -22 -6 -19 -4 3 -11 -8 -14 -25 -4 -17 -10 -28 -14 -26 -5
3 -7 -3 -6 -12 2 -10 -1 -21 -6 -24 -5 -3 -10 -16 -11 -27 -1 -12 -5 -22 -10
-22 -5 0 -6 -7 -3 -16 4 -9 2 -13 -5 -8 -8 4 -9 -1 -4 -16 4 -14 3 -20 -3 -16
-5 3 -12 -3 -15 -14 -3 -11 0 -20 6 -20 7 0 4 -5 -5 -11 -9 -5 -15 -16 -12
-23 3 -7 -3 -16 -13 -20 -15 -6 -15 -8 -3 -16 11 -7 12 -10 2 -10 -7 0 -11 -4
-8 -9 3 -5 -1 -28 -10 -52 -9 -24 -18 -57 -20 -74 -8 -52 -9 -60 -18 -74 -6
-9 -5 -12 2 -8 6 5 8 0 5 -13 -3 -11 -8 -18 -12 -16 -3 2 -7 -6 -7 -17 -5 -69
-18 -126 -28 -120 -6 4 -4 -1 4 -12 17 -21 17 -24 -2 -36 -11 -7 -11 -9 1 -9
9 0 10 -4 4 -12 -6 -7 -9 -23 -8 -35 1 -13 -3 -23 -8 -23 -6 0 -7 -3 -4 -7 4
-3 2 -12 -4 -20 -9 -10 -8 -13 2 -13 9 0 10 -3 4 -8 -16 -11 -17 -28 -19 -167
0 -71 -5 -136 -10 -144 -6 -9 -5 -12 2 -7 6 3 13 2 17 -4 3 -5 2 -10 -2 -10
-9 0 -10 -58 -2 -75 2 -6 4 -25 4 -42 0 -18 2 -33 5 -33 3 0 7 -17 8 -37 2
-21 7 -40 13 -41 6 -3 6 -9 -1 -17 -8 -9 -6 -17 5 -29 9 -9 12 -16 7 -16 -5 0
-6 -20 -2 -47 5 -27 6 -51 3 -55 -2 -5 0 -8 4 -8 5 0 10 -12 11 -26 1 -15 6
-32 11 -38 4 -6 7 -21 6 -33 -1 -13 2 -23 6 -23 5 0 6 -7 3 -15 -4 -8 -2 -15
4 -15 5 0 9 -10 8 -22 -1 -13 4 -29 12 -37 7 -7 10 -22 7 -32 -4 -11 -2 -19 5
-19 7 0 10 -7 6 -15 -3 -8 -1 -15 4 -15 6 0 10 -8 10 -18 0 -10 6 -24 13 -31
10 -11 9 -12 -3 -6 -9 5 -7 -1 5 -14 11 -13 19 -26 19 -30 -3 -17 90 -216 106
-226 6 -3 8 -11 5 -16 -4 -5 -1 -9 4 -9 6 0 11 -5 11 -11 0 -6 7 -17 15 -26 8
-8 13 -19 10 -24 -4 -5 -1 -9 4 -9 6 0 11 -6 11 -14 0 -8 3 -16 8 -18 9 -4 52
-65 52 -73 0 -4 7 -13 15 -22 8 -8 13 -19 10 -24 -4 -5 2 -6 11 -2 11 4 15 3
10 -5 -3 -6 5 -22 19 -36 14 -14 23 -26 19 -26 -3 0 -1 -7 6 -15 7 -8 16 -13
20 -10 4 2 12 -7 19 -22 6 -14 23 -35 37 -45 13 -11 22 -24 19 -29 -4 -5 0 -9
7 -9 15 0 54 -41 50 -52 -1 -5 3 -8 9 -8 7 0 22 -11 34 -24 13 -14 26 -22 29
-19 3 4 6 1 6 -6 0 -16 26 -42 34 -34 3 4 6 -2 6 -12 0 -10 3 -15 6 -12 4 3
19 -7 34 -23 16 -17 31 -30 35 -30 4 0 20 -12 36 -27 16 -16 32 -28 37 -27 4
0 12 -4 19 -10 33 -29 43 -36 53 -36 6 0 8 -5 5 -10 -4 -6 -3 -9 2 -8 14 5 73
-24 67 -33 -4 -8 10 -11 33 -8 3 0 10 -6 15 -15 5 -9 13 -14 19 -11 5 4 9 1 9
-4 0 -6 7 -11 15 -11 8 0 15 -4 15 -10 0 -5 9 -10 20 -10 11 0 20 -5 20 -12 0
-6 3 -8 7 -5 3 4 12 2 20 -4 7 -6 13 -8 13 -3 0 5 5 2 10 -6 5 -8 14 -16 20
-16 5 -1 14 -2 19 -3 5 0 16 -8 25 -16 8 -8 26 -16 40 -17 14 -1 28 -9 31 -17
5 -13 8 -13 14 -2 7 11 12 10 27 -5 11 -11 27 -18 37 -16 9 2 17 0 17 -5 0 -5
12 -10 27 -11 15 -1 32 -7 37 -12 6 -6 20 -10 32 -10 13 0 25 -4 29 -10 3 -5
12 -7 19 -4 8 3 17 0 21 -6 6 -9 10 -9 16 1 7 11 9 11 9 1 0 -7 5 -10 10 -7 6
4 16 2 23 -3 15 -12 64 -24 102 -26 17 -1 36 -5 43 -9 6 -5 12 -6 12 -2 0 3
10 0 23 -7 12 -7 39 -11 59 -10 21 0 40 -3 43 -8 4 -6 14 -6 27 1 15 8 22 8
28 0 3 -7 14 -9 23 -5 11 4 17 1 17 -7 0 -9 3 -10 8 -4 9 13 52 15 52 2 0 -5
8 -3 17 4 14 12 16 12 8 0 -6 -11 -4 -13 10 -7 11 4 22 2 27 -6 6 -10 8 -10 8
1 0 11 3 11 17 0 15 -12 16 -12 8 1 -8 13 -7 13 8 1 12 -9 17 -10 17 -2 0 7 5
9 10 6 6 -4 8 -10 6 -13 -2 -4 25 -5 60 -2 36 3 69 1 74 -4 7 -7 10 -6 10 1 0
8 9 9 30 3 17 -5 30 -5 30 -1 0 9 43 7 60 -4 9 -6 11 -4 5 5 -6 10 -4 12 8 7
9 -3 18 -1 21 6 3 8 5 8 5 -2 1 -11 4 -11 18 0 15 12 16 12 8 -1 -5 -9 0 -8
13 4 12 11 22 14 22 8 0 -11 45 -10 57 1 3 4 13 1 21 -6 13 -10 14 -9 8 2 -7
10 -3 12 14 6 17 -5 21 -4 15 6 -6 11 -5 11 5 2 8 -8 20 -9 36 -3 16 7 24 6
24 -1 0 -8 4 -8 13 -1 6 6 27 9 45 8 17 -1 32 1 32 6 0 4 11 8 25 8 14 0 25 3
25 8 0 4 19 8 43 9 64 3 101 11 105 22 3 8 10 8 23 0 15 -7 21 -6 25 4 3 9 13
13 26 9 12 -3 19 -1 16 4 -4 5 4 10 15 10 29 2 49 8 65 17 6 5 17 5 22 2 6 -3
10 -1 10 6 0 7 3 10 6 7 3 -4 20 0 39 7 18 8 36 11 40 7 5 -4 5 -1 1 6 -5 8 0
12 13 12 12 0 21 6 21 13 0 8 4 7 10 -3 5 -8 10 -10 10 -4 0 7 7 15 16 18 10
4 13 2 8 -7 -4 -6 4 -2 18 11 13 12 29 22 36 22 17 0 92 41 92 50 0 5 11 7 25
6 13 -2 23 0 22 3 -1 3 3 7 8 9 6 2 17 10 26 18 9 8 19 11 22 7 4 -3 7 -1 7 5
0 7 5 12 11 12 6 0 26 12 45 26 19 15 34 22 35 18 0 -5 4 1 9 13 5 13 15 21
22 18 7 -3 28 9 47 25 18 16 37 27 42 24 5 -3 8 -2 7 3 -2 4 -1 8 2 8 10 0 38
30 34 36 -2 4 8 10 21 13 14 4 23 11 20 16 -3 6 -1 10 4 10 6 0 40 29 76 65
35 36 70 65 76 65 7 0 10 3 7 6 -4 3 16 28 42 56 27 28 47 54 45 58 -5 8 47
56 57 52 5 -1 7 1 7 6 -3 20 2 32 12 26 7 -4 10 -1 7 6 -2 8 3 22 11 31 27 30
41 48 44 56 1 5 6 7 10 5 5 -1 6 2 3 7 -4 5 -2 12 4 16 6 4 8 11 5 16 -4 5 -2
9 4 9 5 0 13 10 17 22 3 12 13 28 21 36 8 8 12 21 9 29 -3 8 -1 11 4 8 6 -3
10 1 10 9 0 9 4 16 9 16 5 0 12 11 15 25 4 14 11 25 17 25 6 0 7 5 4 10 -3 6
-2 10 2 10 5 0 9 9 10 21 1 12 10 28 20 36 10 8 11 11 3 7 -13 -7 -13 -5 -1 9
7 9 10 17 5 17 -5 0 -1 5 8 10 10 6 15 19 13 31 -3 14 0 19 9 16 9 -4 12 2 8
19 -2 13 0 24 6 24 9 0 27 55 23 73 0 4 3 7 7 7 5 0 9 6 10 13 0 6 7 35 15 62
8 28 16 57 18 65 2 8 9 18 14 22 6 5 5 8 -4 8 -11 0 -11 3 -1 15 10 12 10 18
-1 32 -9 10 -9 14 -2 10 8 -5 16 6 24 35 7 24 12 47 10 52 -1 4 4 14 10 22 9
11 8 14 -2 14 -10 0 -11 2 -2 8 10 6 15 34 22 105 1 5 6 5 13 1 7 -5 8 -3 2 7
-12 20 -14 38 -3 45 6 3 5 11 -2 20 -6 8 -7 14 -2 14 5 0 9 17 8 38 -1 20 3
43 8 50 6 7 6 12 0 12 -5 0 -10 7 -10 15 0 8 5 15 11 15 6 0 5 4 -2 9 -17 11
-17 21 0 32 11 7 11 9 -1 9 -10 0 -11 3 -2 14 9 10 9 16 1 21 -8 5 -8 10 0 20
7 8 7 15 1 19 -6 4 -6 18 -1 36 5 17 5 30 0 30 -9 0 -8 19 3 36 3 6 3 14 0 18
-12 12 -12 36 0 36 8 0 8 3 2 8 -14 10 -14 72 -1 72 7 0 7 3 -1 8 -6 4 -14 33
-16 65 -2 32 -7 60 -10 63 -4 4 -2 16 4 27 8 14 8 18 0 13 -7 -5 -11 5 -11 29
0 20 -4 34 -8 31 -4 -2 -8 13 -7 35 1 21 -2 39 -6 39 -4 0 -6 11 -4 25 1 14
-2 25 -6 25 -5 0 -9 11 -9 25 0 14 -6 25 -12 25 -9 0 -8 4 2 10 9 6 10 10 3
10 -6 0 -10 9 -8 20 2 11 -1 20 -7 20 -5 0 -8 7 -5 15 4 8 2 17 -4 20 -5 4 -7
10 -4 15 3 5 1 11 -5 15 -6 4 -8 11 -4 16 3 5 0 16 -6 24 -6 8 -9 19 -5 25 3
5 1 10 -4 10 -6 0 -11 5 -11 12 0 6 -8 20 -17 31 -10 11 -12 17 -5 13 6 -4 12
-2 12 3 0 6 -4 11 -8 11 -4 0 -8 10 -9 22 -1 11 -6 24 -10 27 -4 3 -10 17 -11
30 -2 13 -10 31 -18 38 -8 8 -15 19 -15 24 -1 5 -2 13 -3 18 0 6 -7 16 -13 22
-7 7 -13 21 -13 31 0 10 -7 18 -16 18 -8 0 -13 4 -10 9 4 5 0 12 -6 14 -10 4
-10 6 0 6 10 1 9 5 -3 17 -9 9 -14 23 -11 31 3 8 1 11 -4 8 -9 -6 -14 8 -11
28 1 5 -3 6 -8 3 -9 -6 -26 22 -23 37 1 4 -2 7 -8 7 -5 0 -10 7 -10 15 0 9 -7
18 -15 21 -8 4 -12 10 -9 15 3 5 0 9 -7 9 -7 0 -10 3 -6 6 3 3 -3 14 -14 25
-10 10 -19 26 -19 34 0 8 -7 15 -16 15 -8 0 -13 4 -10 9 3 4 -10 25 -29 46
-19 22 -31 44 -28 49 3 6 3 8 -2 4 -7 -6 -35 14 -35 25 0 3 -18 24 -40 47 -22
23 -40 47 -40 52 0 6 -3 9 -6 6 -6 -7 -54 39 -54 52 0 6 -4 10 -10 10 -5 0
-21 11 -35 25 -14 14 -25 23 -25 20 0 -3 -11 4 -24 17 -53 51 -85 78 -91 78
-13 0 -34 28 -27 35 4 5 2 5 -5 1 -6 -3 -16 2 -22 11 -7 13 -10 14 -11 4 0
-10 -5 -9 -18 5 -21 24 -76 63 -93 66 -7 2 -24 13 -37 26 -13 12 -27 20 -32
17 -4 -3 -10 0 -12 5 -2 6 -13 12 -25 13 -12 0 -20 4 -17 8 2 4 -12 13 -31 20
-19 7 -35 17 -35 22 0 5 -7 7 -15 3 -10 -3 -15 1 -16 12 0 10 -3 12 -6 5 -3
-10 -8 -9 -20 2 -8 8 -19 13 -24 10 -5 -4 -9 1 -9 9 0 9 -7 13 -20 11 -11 -2
-20 -1 -20 3 0 4 -11 12 -25 18 -18 9 -25 9 -29 0 -2 -6 -5 -4 -5 6 -1 11 -7
15 -21 11 -11 -3 -20 0 -20 6 0 6 -8 11 -18 11 -10 0 -22 4 -27 9 -6 6 -21 12
-35 14 -14 3 -34 8 -45 11 -11 4 -24 6 -29 6 -5 -1 -13 4 -17 12 -7 10 -9 10
-9 -2 0 -11 -2 -12 -8 -3 -4 7 -22 13 -40 15 -18 1 -32 6 -32 11 0 4 -4 5 -10
2 -5 -3 -10 -2 -10 4 0 5 -13 8 -30 6 -16 -2 -30 0 -30 5 0 4 -8 7 -17 5 -10
-1 -27 2 -38 8 -20 11 -30 13 -92 18 -18 2 -33 7 -33 11 0 5 -9 4 -19 -2 -13
-7 -22 -7 -26 0 -9 15 -27 12 -19 -2 6 -10 4 -10 -7 0 -7 6 -28 12 -46 12 -18
0 -33 3 -33 8 0 4 -42 8 -92 10 -58 2 -95 7 -100 15 -5 8 -8 9 -8 1 0 -7 -17
-11 -45 -11 -25 1 -45 6 -45 11 0 4 -8 2 -17 -5 -15 -12 -16 -12 -8 1 7 12 6
13 -6 3 -11 -9 -19 -9 -26 -2 -7 7 -13 7 -17 1z"/>
</g>
</svg>
